<svg width="70" height="60" viewBox="0 0 70 60" fill="none" xmlns="http://www.w3.org/2000/svg">
<path fill-rule="evenodd" clip-rule="evenodd" d="M32.5767 0.905826C33.7333 2.0922 33.7091 3.99154 32.5227 5.14812L10.3749 26.7397H67C68.6569 26.7397 70 28.0829 70 29.7397C70 31.3966 68.6569 32.7397 67 32.7397H10.3749L32.5227 54.3313C33.7091 55.4879 33.7333 57.3873 32.5767 58.5736C31.4201 59.76 29.5207 59.7842 28.3344 58.6276L0.905824 31.8878C0.326636 31.3232 0 30.5486 0 29.7397C0 28.9309 0.326636 28.1562 0.905824 27.5916L28.3344 0.85188C29.5207 -0.304702 31.4201 -0.280549 32.5767 0.905826Z" fill="white"/>
</svg>
