<svg width="41" height="41" viewBox="0 0 41 41" fill="none" xmlns="http://www.w3.org/2000/svg">
<path fill-rule="evenodd" clip-rule="evenodd" d="M20.6023 40.5373C21.7069 40.5373 22.6023 39.6419 22.6023 38.5373V22.8596H38.682C39.7866 22.8596 40.682 21.9642 40.682 20.8596C40.682 19.755 39.7866 18.8596 38.682 18.8596H22.6023V2.53729C22.6023 1.43272 21.7069 0.537292 20.6023 0.537292C19.4977 0.537292 18.6023 1.43272 18.6023 2.53729V18.8596H2.68201C1.57744 18.8596 0.682007 19.755 0.682007 20.8596C0.682007 21.9642 1.57744 22.8596 2.68201 22.8596H18.6023V38.5373C18.6023 39.6419 19.4977 40.5373 20.6023 40.5373Z" fill="white"/>
</svg>
