<svg width="68" height="66" viewBox="0 0 68 66" fill="none" xmlns="http://www.w3.org/2000/svg">
<path fill-rule="evenodd" clip-rule="evenodd" d="M33.9191 7.04937L9.76007 29.011H14.2745C15.9313 29.011 17.2745 30.3542 17.2745 32.011V59.0769H50.5529V32.011C50.5529 30.3542 51.896 29.011 53.5529 29.011H58.2088L33.9191 7.04937ZM30.554 1.9998C32.4573 0.269638 35.3627 0.265738 37.2706 1.99079L66.0856 28.044C68.8015 30.4996 67.0644 35.011 63.4029 35.011H56.5529V60.0769C56.5529 62.8384 54.3143 65.0769 51.5529 65.0769H16.2745C13.513 65.0769 11.2745 62.8384 11.2745 60.0769V35.011H4.58666C0.930474 35.011 -0.809363 30.5105 1.89604 28.0512L30.554 1.9998Z" fill="white"/>
</svg>
