<svg width="71" height="70" viewBox="0 0 71 70" fill="none" xmlns="http://www.w3.org/2000/svg">
<path fill-rule="evenodd" clip-rule="evenodd" d="M24.8308 3.82702C25.2132 1.64145 27.1322 0 29.4139 0H42.5696C44.8638 0 46.7403 1.64423 47.1576 3.76468C47.1673 3.81364 47.1757 3.86284 47.1829 3.91222L48.1784 10.7571C49.3048 11.3021 50.3823 11.9183 51.4085 12.5948L58.0986 9.9676L58.1071 9.96427C60.2025 9.14875 62.6098 9.95646 63.7767 11.9092L63.7816 11.9173L70.3594 23.0054L70.3699 23.0232C71.5468 25.0386 71.0285 27.5679 69.2121 28.9631L69.2019 28.9709L63.5878 33.2452C63.6316 33.813 63.6587 34.3994 63.6587 35C63.6587 35.6014 63.6315 36.1886 63.5876 36.7571L69.1881 41.0311C69.2033 41.0427 69.2183 41.0544 69.2332 41.0662C70.9731 42.4472 71.5584 44.9523 70.3424 46.9955C70.341 46.998 70.3395 47.0004 70.3381 47.0028L63.7651 58.0826L63.7602 58.0909C62.5662 60.089 60.1575 60.796 58.1437 60.0558C58.1231 60.0482 58.1026 60.0404 58.0821 60.0324L51.3984 57.4077C50.366 58.0905 49.286 58.7038 48.1616 59.2452L47.1664 66.0878C47.1623 66.1162 47.1577 66.1446 47.1528 66.173C46.7704 68.3585 44.8513 70 42.5696 70H29.4139C27.1322 70 25.2132 68.3585 24.8308 66.173C24.8258 66.1446 24.8213 66.1162 24.8172 66.0878L23.8216 59.2429C22.6952 58.6979 21.6177 58.0817 20.5915 57.4052L13.9015 60.0324L13.8929 60.0357C11.7975 60.8513 9.3902 60.0435 8.22337 58.0909L8.21848 58.0826L1.64063 46.9946L1.63016 46.9768C0.453217 44.9614 0.971521 42.4321 2.78796 41.0369L2.79543 41.0311L8.39595 36.7571C8.35209 36.1886 8.32485 35.6014 8.32485 35C8.32485 34.3986 8.35209 33.8114 8.39595 33.2429L2.79543 28.9689C2.7803 28.9573 2.76527 28.9456 2.75035 28.9338C1.00989 27.5523 0.424756 25.0461 1.64238 23.0024C1.64343 23.0007 1.64447 22.9989 1.64552 22.9971L8.22336 11.9091C9.41732 9.91104 11.8261 9.20399 13.8399 9.94419C13.8605 9.95177 13.881 9.95957 13.9014 9.9676L20.5852 12.5923C21.6176 11.9095 22.6976 11.2962 23.822 10.7548L24.8172 3.91222C24.8213 3.88376 24.8258 3.85535 24.8308 3.82702ZM30.5766 6L29.6038 12.6891C29.3976 14.1064 28.4624 15.2588 27.2178 15.7983C25.7827 16.4203 24.4411 17.1829 23.1982 18.0779C22.1196 18.8546 20.6844 19.0773 19.3762 18.5636L12.7871 15.976L7.44964 24.9731L12.9164 29.1451C14.0596 30.0175 14.623 31.4133 14.4663 32.7916C14.379 33.5603 14.3249 34.2897 14.3249 35C14.3249 35.7103 14.379 36.4397 14.4663 37.2084C14.623 38.5867 14.0596 39.9825 12.9164 40.8549L7.44964 45.0269L12.7871 54.024L19.3799 51.4349C20.679 50.9248 22.1076 51.1399 23.1868 51.9104C24.4443 52.8083 25.7919 53.5815 27.2207 54.2027C28.4623 54.7424 29.3976 55.8932 29.6038 57.3109L30.5766 64H41.4069L42.3798 57.3109C42.5859 55.8936 43.5212 54.7412 44.7658 54.2017C46.2008 53.5797 47.5425 52.8171 48.7854 51.9221C49.864 51.1454 51.2992 50.9227 52.6073 51.4364L59.1965 54.024L64.5339 45.0269L59.0672 40.8549C57.924 39.9825 57.3606 38.5867 57.5172 37.2084C57.6046 36.4397 57.6587 35.7103 57.6587 35C57.6587 34.2899 57.6046 33.5608 57.5173 32.7923C57.3605 31.4125 57.9254 30.0152 59.0709 29.1431L64.5496 24.9719L59.213 15.976L52.6201 18.5651C51.321 19.0752 49.8925 18.8601 48.8132 18.0896C47.5558 17.1917 46.2081 16.4185 44.7793 15.7973C43.5378 15.2576 42.6025 14.1068 42.3963 12.6891L41.4234 6H30.5766ZM65.1875 43.9252L65.1827 43.9334C65.1843 43.9306 65.1859 43.9279 65.1875 43.9252ZM35.9918 26.8C31.2065 26.8 27.4806 30.5418 27.4806 35C27.4806 39.4582 31.2065 43.2 35.9918 43.2C40.777 43.2 44.503 39.4582 44.503 35C44.503 30.5418 40.777 26.8 35.9918 26.8ZM21.4806 35C21.4806 27.0742 28.0489 20.8 35.9918 20.8C43.9347 20.8 50.503 27.0742 50.503 35C50.503 42.9258 43.9347 49.2 35.9918 49.2C28.0489 49.2 21.4806 42.9258 21.4806 35Z" fill="white"/>
</svg>
