<svg width="128" height="128" viewBox="0 0 128 128" fill="none" xmlns="http://www.w3.org/2000/svg">
<path d="M0 38.88C0 24.9856 0 18.0384 2.78962 12.7697C5.04083 8.5179 8.5179 5.04083 12.7697 2.78962C18.0384 0 24.9856 0 38.88 0H89.12C103.014 0 109.962 0 115.23 2.78962C119.482 5.04083 122.959 8.5179 125.21 12.7697C128 18.0384 128 24.9856 128 38.88V89.12C128 103.014 128 109.962 125.21 115.23C122.959 119.482 119.482 122.959 115.23 125.21C109.962 128 103.014 128 89.12 128H38.88C24.9856 128 18.0384 128 12.7697 125.21C8.5179 122.959 5.04083 119.482 2.78962 115.23C0 109.962 0 103.014 0 89.12V38.88Z" fill="white"/>
</svg>
