<svg width="62" height="62" viewBox="0 0 62 62" fill="none" xmlns="http://www.w3.org/2000/svg">
<path fill-rule="evenodd" clip-rule="evenodd" d="M8.54379 20C12.6132 11.7081 21.14 6 31 6C43.0948 6 53.1836 14.5888 55.4999 26H61.5989C59.2082 11.2566 46.4186 0 31 0C20.7389 0 11.6422 4.98541 6 12.6662L6 5H0V23V26H0.401123H3H6.50009H21V20H8.54379ZM6.50009 36H0.401123C2.79184 50.7434 15.5814 62 31 62C41.2611 62 50.3578 57.0146 56 49.3338V57H62V39V36H61.5989H59H55.4999H41V42H53.4562C49.3868 50.2919 40.86 56 31 56C18.9052 56 8.81644 47.4112 6.50009 36Z" fill="white"/>
</svg>
